<?xml version="1.0" encoding="utf-8"?>
<!-- Generator: Adobe Illustrator 20.0.0, SVG Export Plug-In . SVG Version: 6.00 Build 0)  -->
<svg version="1.1" id="Layer_1" xmlns="http://www.w3.org/2000/svg" xmlns:xlink="http://www.w3.org/1999/xlink" x="0px" y="0px"
	 viewBox="0 0 600 600" style="enable-background:new 0 0 600 600;" xml:space="preserve">
<style type="text/css">
	.st0{fill:#FFFFFF;}
</style>
<g>
	<path class="st0" d="M435.8,273.7c14.1-88.8-39.5-90.7-73.8-90.7h-56.4l-55.9,354.3h47L324,363.9h0.9l32.2,152.3l12.4-17L339.6,541
		l0.8,0.6L412.3,441l-0.8-0.6l-17.2,24l-22-99.6C412.8,357.8,430.6,307.1,435.8,273.7z M328.2,339.9l18.3-117h7.5
		c35.7-0.9,35.7,27.3,30.1,61.1C378.5,319.7,363,342.3,328.2,339.9z"/>
	<polygon class="st0" points="212.8,87.6 233.9,58 233.1,57.5 200,103.8 182,128.5 182.3,128.5 161.2,158 162,158.6 183.6,128.5 
		231.8,128.5 182,441.9 229,441.9 278.8,128.5 331.9,128.5 338,87.6 	"/>
</g>
</svg>
